<?xml version="1.0" encoding="UTF-8" standalone="no"?>
<svg width="373px" height="88px" viewBox="0 0 373 88" version="1.1" xmlns="http://www.w3.org/2000/svg" xmlns:xlink="http://www.w3.org/1999/xlink">
    <defs></defs>
    <g id="Page-1" stroke="none" stroke-width="1" fill="none" fill-rule="evenodd">
        <g id="Graphic-guidelines" transform="translate(-134.000000, -781.000000)" fill="#00A5E5">
            <g id="Logo" transform="translate(134.000000, 781.000000)">
                <g id="Group-3" transform="translate(0.000000, 0.009112)">
                    <path d="M0,23.1704368 L0,23.1704368 L6.07585965,31.4235848 C6.07585965,31.4235848 22.1687953,24.9842201 23.9731813,24.3268321 C25.123614,23.8299943 26.1078246,23.9948837 26.5999298,24.4895519 C27.4201053,25.3139989 28.570538,26.3055048 30.0490409,28.2863471 C31.5275439,30.1023001 31.0354386,31.5884742 28.7345731,32.4129212 C26.4358947,33.2373681 12.1517193,39.3447845 12.1517193,39.3447845 L19.5398596,49.081937 C19.5398596,49.081937 36.4507836,41.6554056 38.2595439,40.8309586 C40.066117,39.8394526 40.8862924,40.8309586 41.3783977,41.1607374 C41.7064678,41.6554056 43.5130409,43.6362479 45.1533918,45.6170902 C46.6340819,47.7628219 46.1419766,48.9192172 44.6612865,49.7414946 C43.0209357,50.5681112 26.7639649,58.4914804 26.7639649,58.4914804 L35.9586784,70.7041435 L69.7849006,52.5489535 C69.7849006,52.5489535 41.3783977,23.0033778 40.066117,21.5193732 C38.7516491,19.8683097 39.5740117,18.3821356 40.5582222,17.722578 C41.5424327,17.2257402 43.677076,16.5683522 45.1533918,15.9066251 C46.6340819,15.2470675 47.2902222,15.7417357 48.1103977,16.5683522 C48.9327602,17.5576886 79.1458363,47.5979325 79.1458363,47.5979325 L104.59752,34.0639847 L94.9063275,25.8108366 C94.9063275,25.8108366 84.2352982,30.7618576 82.9208304,31.4235848 C81.7725848,32.0809728 79.9660117,32.9075893 78.9818012,31.9160834 C77.8313684,30.926747 75.368655,28.4512365 74.0541871,26.9650624 C72.9059415,25.6459472 74.2182222,24.6544413 75.2046199,24.1597731 C76.5169006,23.5002155 87.028269,19.0438627 87.028269,19.0438627 L78.8177661,11.7822206 C78.8177661,11.7822206 68.7985029,16.0715145 65.515614,17.3927992 C64.3673684,17.8874674 63.0550877,17.2257402 62.7248304,16.898131 C62.2327251,16.4034628 59.6037895,13.9279524 58.6195789,12.604498 C57.9634386,11.6173313 59.1116842,10.7907147 59.4397544,10.6258253 C60.262117,10.1289875 71.7555088,5.67263471 71.7555088,5.67263471 L64.8594737,0.0620561543 L0,23.1704368 Z" id="Fill-1"></path>
                </g>
                <g id="Group-6" transform="translate(118.105263, 33.722669)">
                    <path d="M243.457378,12.397551 L243.457378,12.397551 C238.706922,12.397551 232.294243,13.0592782 230.170536,17.3507416 L229.995565,17.3507416 L229.995565,13.2241676 L220.649939,13.2241676 L220.649939,41.9431268 L230.323635,41.9431268 L230.323635,29.2336259 C230.323635,22.7964308 232.950384,18.0102992 239.693319,18.507137 C244.441588,18.6698568 245.099916,21.6400355 245.099916,27.417673 L245.099916,41.9431268 L254.795483,41.9431268 L254.795483,23.1283792 C254.795483,16.8539039 250.351226,12.397551 243.457378,12.397551 L243.457378,12.397551 Z M197.164489,36.9921058 L197.164489,36.9921058 C193.55353,37.3218846 191.254851,36.0005998 191.407951,32.7006424 C191.582922,29.8931835 196.180278,28.7367881 197.645658,28.7367881 C199.288196,28.7367881 205.044735,28.9038471 206.357015,28.9038471 C206.357015,32.535753 203.883366,36.6601574 197.164489,36.9921058 L197.164489,36.9921058 Z M215.068372,23.6208778 L215.068372,23.6208778 C215.068372,14.3783934 207.671483,12.397551 200.775448,12.397551 C196.333378,12.397551 189.942571,12.8943888 186.329425,14.3783934 L186.329425,21.1453673 C189.109273,19.4943037 195.196068,18.0102992 198.478957,18.0102992 C204.388594,18.0102992 206.182044,20.1560309 206.357015,24.2826049 C205.044735,23.9506566 199.288196,23.7857672 197.645658,23.9506566 C192.241249,24.6123837 181.887354,25.4390003 182.215425,33.8548681 C182.215425,40.4569526 190.270641,42.6026843 196.180278,42.6026843 C198.807027,42.6026843 204.213623,41.1165102 206.685085,37.6516634 C206.685085,38.9729481 206.840372,40.4569526 206.840372,41.9431268 L215.549542,41.9431268 C215.221471,39.6325057 215.068372,37.1569952 215.068372,34.8463741 L215.068372,23.6208778 Z M168.250571,41.9431268 L168.250571,41.9431268 L177.795226,41.9431268 L177.795226,0.019998582 L168.250571,0.019998582 L168.250571,41.9431268 Z M146.254559,36.8250468 L146.254559,36.8250468 C141.176033,36.8250468 137.237004,34.0197575 137.237004,27.5825624 C137.237004,22.9613202 139.863752,18.340078 145.445319,18.340078 C151.354957,18.340078 153.476477,22.3017626 153.651448,26.426167 C154.134805,31.8740258 151.836126,36.8250468 146.254559,36.8250468 L146.254559,36.8250468 Z M150.696629,12.397551 L150.696629,12.397551 C145.926489,12.397551 139.535682,13.2241676 136.908933,17.0187933 L136.733963,17.0187933 L136.733963,13.2241676 L127.539249,13.2241676 L127.539249,53.9909005 L136.908933,53.9909005 L137.237004,38.3112209 L137.390103,38.4761103 C139.358524,42.1080162 146.7576,42.437795 150.368559,42.437795 C159.386115,42.437795 164.158442,35.0112635 164.158442,26.0963883 C164.158442,18.8347462 157.920735,12.5624404 150.696629,12.397551 L150.696629,12.397551 Z M98.4766058,24.6123837 L98.4766058,24.6123837 C98.6406409,21.1453673 101.09898,17.6805204 107.008618,17.6805204 C111.124805,17.6805204 114.407694,21.1453673 114.407694,24.6123837 L98.4766058,24.6123837 Z M105.215167,12.397551 L105.215167,12.397551 C95.8498573,12.5624404 88.7876,18.507137 88.7876,28.409179 C88.7876,38.3112209 98.4766058,42.6026843 108.323085,42.6026843 C112.109015,42.6026843 117.690582,41.613348 120.973471,40.2920632 L120.973471,34.1846469 C117.843682,35.8357104 112.918255,37.3218846 110.138407,37.3218846 C105.040196,37.3218846 99.1327462,36.3303786 97.9823135,29.8931835 L123.92829,29.8931835 L123.92829,28.0794002 C123.92829,18.9996356 118.827892,12.2326617 105.215167,12.397551 L105.215167,12.397551 Z M81.5634947,36.8250468 L81.5634947,36.8250468 C78.2806058,36.8250468 77.2942082,34.8463741 77.4582433,30.0602425 L77.4582433,18.8347462 L86.1608515,18.8347462 L86.1608515,13.2241676 L77.4582433,13.2241676 L77.4582433,5.13590896 L68.0994947,7.28164067 L68.0994947,13.2241676 L61.6955649,13.2241676 L61.6955649,18.8347462 L67.9332725,18.8347462 L67.9332725,31.2144682 C67.9332725,38.3112209 69.4139626,41.4484586 78.608676,42.437795 C81.2354246,42.7675737 84.6845357,42.1080162 86.6551439,41.9431268 L86.3248865,36.3303786 C85.340676,36.495268 82.7117404,36.8250468 81.5634947,36.8250468 L81.5634947,36.8250468 Z M55.9477754,36.6601574 L55.9477754,36.6601574 C51.8447111,36.6601574 50.8561263,35.5059317 51.0201614,30.0602425 L51.0201614,18.8347462 L58.4104889,18.8347462 L58.4104889,13.2241676 L51.0201614,13.2241676 L51.0201614,4.97101957 L41.4973778,7.28164067 L41.4973778,13.389057 L33.9452023,13.2241676 L33.9452023,18.8347462 L41.3333427,18.8347462 L41.3333427,31.2144682 C41.3333427,38.3112209 43.6342082,42.437795 52.8289216,42.437795 C55.4556702,42.437795 58.0824187,42.1080162 60.0530269,41.9431268 L59.8889918,36.3303786 C58.7385591,36.495268 56.931986,36.6601574 55.9477754,36.6601574 L55.9477754,36.6601574 Z M10.4641263,24.6123837 L10.4641263,24.6123837 L28.0355649,24.6123837 L28.0355649,18.6698568 L10.4641263,18.6698568 L10.4641263,8.76564521 L29.8399509,8.76564521 L29.8399509,2.82528786 L0.447050292,2.82528786 L0.447050292,41.9431268 L30.1680211,41.9431268 L30.1680211,35.8357104 L10.4641263,35.8357104 L10.4641263,24.6123837 Z" id="Fill-4"></path>
                </g>
            </g>
        </g>
    </g>
</svg>